<?xml version="1.0" standalone="no"?><!DOCTYPE svg PUBLIC "-//W3C//DTD SVG 1.1//EN" "http://www.w3.org/Graphics/SVG/1.1/DTD/svg11.dtd"><svg class="icon" width="200px" height="200.00px" viewBox="0 0 1024 1024" version="1.1" xmlns="http://www.w3.org/2000/svg"><path fill="#ea986c" d="M233.046 941.461c-18.88 17.846-18.88 46.715 0.105 64.48 18.985 17.84 49.622 17.84 68.607 0l489.848-460.275c9.568-8.87 14.149-20.597 14.149-32.273 0-0.99-0.523-1.82-0.575-2.758-0.21-4.887-0.99-9.782-2.966-14.356-0.674-1.513-1.976-2.604-2.807-4.005-2.186-3.849-4.371-7.806-7.801-11.134L301.759 20.79c-18.985-17.631-49.517-17.631-68.607 0.053-18.985 17.788-18.985 46.71 0 64.5L688.608 513.39l-455.562 428.07z m0 0"  /></svg>